<svg preserveAspectRatio="xMidYMid meet" viewBox="169.984 147.456 686.08 700.416" xmlns="http://www.w3.org/2000/svg" version="1.0" style="max-height: 500px" width="686.08" height="700.416">

<g stroke="none" fill="#000000" transform="translate(0.000000,1024.000000) scale(0.100000,-0.100000)">
<path d="M4915 8669 c-588 -25 -1213 -242 -1709 -592 -173 -122 -296 -227&#10;-456 -387 -286 -285 -488 -568 -655 -914 -151 -315 -240 -618 -292 -996 -24&#10;-178 -24 -637 1 -805 42 -289 104 -527 192 -745 57 -139 172 -370 185 -370 4&#10;0 17 26 29 58 11 31 35 94 52 140 l31 82 -51 128 c-158 398 -221 757 -209&#10;1186 15 531 158 1024 426 1468 139 230 254 380 436 567 496 509 1100 819 1796&#10;918 177 25 664 25 833 0 446 -67 794 -187 1152 -398 622 -366 1119 -962 1360&#10;-1632 122 -339 177 -651 177 -1012 1 -384 -66 -730 -214 -1106 l-49 -126 45&#10;-128 c25 -70 49 -134 53 -142 11 -18 43 29 110 163 103 205 167 389 226 644&#10;62 273 71 358 71 705 0 329 -4 375 -61 669 -92 474 -329 972 -657 1381 -102&#10;127 -383 407 -507 506 -490 390 -1045 627 -1675 714 -98 14 -162 18 -415 28&#10;-36 2 -137 0 -225 -4z"/>
<path d="M5046 7989 l-26 -31 0 -224 c0 -245 5 -269 55 -292 42 -19 74 -14&#10;106 17 l29 29 0 235 0 235 -26 31 c-21 26 -33 31 -69 31 -36 0 -48 -5 -69 -31z"/>
<path d="M4008 7665 c-17 -10 -31 -29 -37 -52 -14 -49 1 -79 127 -253 79 -110&#10;104 -137 132 -146 48 -16 89 2 115 49 l20 37 -21 39 c-11 21 -67 102 -124 180&#10;-119 164 -145 182 -212 146z"/>
<path d="M6144 7670 c-11 -4 -75 -82 -142 -173 -101 -136 -122 -171 -122 -200&#10;0 -69 74 -116 134 -85 26 14 226 277 254 334 37 78 -42 158 -124 124z"/>
<path d="M4870 7230 c-115 -24 -168 -44 -280 -101 -308 -157 -538 -474 -606&#10;-834 -24 -130 -15 -367 19 -485 48 -167 94 -256 234 -453 145 -204 199 -320&#10;259 -557 48 -189 92 -253 196 -280 24 -7 186 -10 446 -8 398 3 408 4 448 25&#10;47 25 91 73 111 122 8 18 30 97 49 174 58 234 96 312 270 555 110 154 158 240&#10;200 356 126 354 62 739 -176 1055 -166 220 -431 384 -703 436 -113 21 -357 19&#10;-467 -5z m452 -190 c182 -40 338 -128 478 -269 192 -193 291 -422 292 -671 1&#10;-225 -56 -370 -244 -622 -149 -201 -210 -329 -269 -567 -48 -199 -53 -205&#10;-180 -210 l-91 -3 6 143 c20 434 48 693 93 879 34 140 62 195 108 210 19 6 42&#10;21 50 33 32 46 7 139 -46 168 -12 6 -40 11 -63 11 -56 -1 -85 -37 -139 -177&#10;l-44 -110 -155 -3 -156 -2 -18 52 c-9 29 -34 90 -54 135 -45 97 -76 120 -138&#10;103 -71 -18 -110 -84 -92 -151 9 -32 19 -43 57 -61 40 -20 49 -31 68 -80 45&#10;-112 85 -329 104 -563 12 -145 31 -477 31 -542 l0 -43 -70 0 c-85 0 -133 18&#10;-154 58 -8 16 -29 86 -45 156 -53 219 -122 365 -276 581 -107 150 -154 239&#10;-192 362 -24 79 -27 103 -26 233 0 115 4 161 21 222 49 180 131 325 261 461&#10;131 137 299 230 488 271 100 21 289 20 395 -4z m-138 -1349 l39 -1 -6 -52&#10;c-26 -227 -37 -361 -46 -538 -17 -316 -22 -384 -31 -393 -4 -5 -18 -7 -31 -5&#10;-22 3 -25 9 -31 73 -3 39 -11 185 -18 325 -9 227 -24 402 -45 542 -8 53 -3 57&#10;80 53 28 -2 68 -3 89 -4z"/>
<path d="M3378 6764 c-49 -26 -64 -92 -30 -133 21 -26 337 -151 382 -151 37 0&#10;85 23 94 45 8 21 8 69 0 90 -4 8 -18 22 -33 30 -37 19 -360 135 -374 135 -7&#10;-1 -24 -7 -39 -16z"/>
<path d="M6800 6770 c-55 -17 -305 -112 -330 -125 -30 -15 -40 -33 -40 -70 0&#10;-57 39 -95 97 -95 38 0 344 117 370 142 25 24 31 75 12 110 -8 16 -69 51 -81&#10;47 -2 0 -14 -4 -28 -9z"/>
<path d="M3527 5727 c-180 -66 -196 -78 -197 -140 0 -39 49 -87 89 -87 50 0&#10;363 117 389 146 26 29 28 63 7 103 -30 59 -79 55 -288 -22z"/>
<path d="M6458 5771 c-51 -41 -45 -117 13 -146 64 -33 331 -125 363 -125 19 0&#10;45 9 60 21 21 16 26 29 26 64 0 26 -7 51 -17 64 -20 23 -314 131 -378 138 -30&#10;4 -47 0 -67 -16z"/>
<path d="M7215 5199 c-375 -36 -792 -162 -1048 -316 -107 -65 -230 -164 -267&#10;-214 -39 -55 -39 -92 0 -131 45 -45 93 -36 169 30 227 198 568 334 992 396 59&#10;9 127 16 153 16 54 0 48 10 102 -168 47 -156 82 -268 249 -810 80 -260 143&#10;-477 141 -481 -3 -4 -36 -9 -73 -10 -196 -5 -494 -50 -741 -111 -591 -146&#10;-1075 -408 -1467 -795 -62 -60 -135 -137 -164 -169 l-51 -60 0 478 0 478 -29&#10;29 c-41 41 -101 41 -142 0 l-29 -29 0 -466 0 -466 -87 96 c-109 121 -263 260&#10;-413 373 -483 365 -1116 585 -1839 641 -74 5 -136 12 -138 14 -3 2 0 19 5 38&#10;121 418 412 1388 422 1408 21 39 401 -25 670 -112 213 -69 388 -161 544 -286&#10;70 -56 103 -67 149 -49 30 11 50 73 37 113 -24 71 -240 233 -431 323 -279 130&#10;-653 222 -974 238 -108 5 -122 4 -142 -13 -23 -19 -31 -42 -129 -384 -132&#10;-458 -406 -1375 -520 -1742 -35 -114 -64 -215 -64 -225 0 -10 7 -28 15 -39 14&#10;-21 18 -21 333 -16 452 7 713 -19 1079 -108 452 -110 771 -246 1150 -491 302&#10;-196 447 -226 640 -135 40 19 108 59 151 87 537 362 1103 563 1787 634 155 16&#10;607 22 761 9 76 -6 83 -5 104 16 17 17 21 30 17 57 -6 32 -106 359 -242 788&#10;-92 290 -312 1014 -404 1332 -27 95 -55 182 -61 193 -13 25 -68 51 -102 49&#10;-13 -1 -63 -6 -113 -10z m-4453 -1914 c628 -61 1209 -274 1642 -602 101 -77&#10;297 -245 292 -251 -2 -1 -43 22 -92 51 -380 231 -942 417 -1459 481 -191 24&#10;-245 28 -516 34 l-256 7 42 130 c22 72 44 138 48 148 8 22 90 23 299 2z m5062&#10;-129 c25 -79 46 -146 46 -148 0 -3 -125 -8 -277 -11 -153 -4 -336 -13 -408&#10;-22 -565 -67 -1055 -218 -1505 -465 -72 -40 -133 -70 -135 -68 -3 2 26 31 63&#10;64 246 221 527 398 827 522 380 158 876 264 1262 271 l81 1 46 -144z"/>
<path d="M4628 4394 c-57 -30 -65 -98 -19 -145 l29 -29 472 0 472 0 29 29 c47&#10;48 38 116 -21 146 -43 22 -921 22 -962 -1z"/>
<path d="M4685 4088 c-15 -14 -28 -38 -31 -59 -5 -31 -1 -42 24 -70 l30 -34&#10;405 0 c449 0 449 0 467 63 11 41 -7 94 -38 111 -14 7 -155 11 -426 11 l-405 0&#10;-26 -22z"/>
<path d="M4862 3810 c-12 -5 -30 -25 -39 -45 -16 -33 -16 -37 0 -71 20 -41 52&#10;-57 159 -79 41 -9 82 -24 93 -35 27 -25 40 -25 71 -1 13 10 59 27 102 36 89&#10;20 125 36 146 67 25 35 20 76 -13 109 l-29 29 -234 -1 c-128 0 -243 -4 -256&#10;-9z"/>
<path d="M6785 2408 c-189 -21 -462 -90 -690 -174 -234 -86 -618 -294 -689&#10;-373 -19 -21 -19 -21 16 -21 127 0 386 44 565 96 199 58 466 174 652 286 95&#10;57 261 178 261 190 0 9 -4 9 -115 -4z"/>
<path d="M3376 2359 c189 -145 506 -304 779 -392 207 -66 423 -110 605 -122&#10;l95 -6 -35 30 c-100 86 -420 259 -636 344 -286 113 -630 197 -807 197 l-68 0&#10;67 -51z"/>
</g>
</svg>